<mxfile host="app.diagrams.net" modified="2024-04-16T01:56:05.576Z" agent="Mozilla/5.0 (Macintosh; Intel Mac OS X 10_15_7) AppleWebKit/537.36 (KHTML, like Gecko) Chrome/123.0.0.0 Safari/537.36" etag="rEFt3-1Nb6ihNy1W7b0J" version="24.2.5" type="github">
  <diagram name="第 1 页" id="6tuh2I0GeQJo9zex5NMO">
    <mxGraphModel dx="891" dy="628" grid="0" gridSize="10" guides="1" tooltips="1" connect="1" arrows="1" fold="1" page="1" pageScale="1" pageWidth="827" pageHeight="1169" math="0" shadow="0">
      <root>
        <mxCell id="0" />
        <mxCell id="1" parent="0" />
        <mxCell id="056Ncb_lGaRzY0hPBTxO-21" value="评估报告" style="edgeStyle=orthogonalEdgeStyle;rounded=0;orthogonalLoop=1;jettySize=auto;html=1;shape=flexArrow;" edge="1" parent="1" source="056Ncb_lGaRzY0hPBTxO-1" target="056Ncb_lGaRzY0hPBTxO-14">
          <mxGeometry relative="1" as="geometry" />
        </mxCell>
        <mxCell id="056Ncb_lGaRzY0hPBTxO-1" value="评估引擎" style="rounded=1;whiteSpace=wrap;html=1;align=left;verticalAlign=top;fillColor=#f5f5f5;fontColor=#333333;strokeColor=none;shadow=1;glass=0;spacingTop=4;spacingLeft=15;fontStyle=1;fontSize=12;" vertex="1" parent="1">
          <mxGeometry x="134" y="351" width="429" height="166" as="geometry" />
        </mxCell>
        <mxCell id="056Ncb_lGaRzY0hPBTxO-2" value="诉讼风险读取" style="rounded=0;whiteSpace=wrap;html=1;fillColor=#D5E8D4;fontColor=#333333;strokeColor=none;shadow=1;" vertex="1" parent="1">
          <mxGeometry x="248" y="389" width="77" height="37" as="geometry" />
        </mxCell>
        <mxCell id="056Ncb_lGaRzY0hPBTxO-3" value="企业成长性" style="rounded=0;whiteSpace=wrap;html=1;fillColor=#D5E8D4;fontColor=#333333;strokeColor=none;shadow=1;" vertex="1" parent="1">
          <mxGeometry x="450" y="391" width="89" height="40" as="geometry" />
        </mxCell>
        <mxCell id="056Ncb_lGaRzY0hPBTxO-4" value="红黄蓝报告" style="rounded=0;whiteSpace=wrap;html=1;fillColor=#66B2FF;fontColor=#333333;strokeColor=none;shadow=1;" vertex="1" parent="1">
          <mxGeometry x="156.5" y="449" width="383.5" height="37" as="geometry" />
        </mxCell>
        <mxCell id="056Ncb_lGaRzY0hPBTxO-5" value="信用评估" style="rounded=0;whiteSpace=wrap;html=1;fillColor=#D5E8D4;fontColor=#333333;strokeColor=none;shadow=1;" vertex="1" parent="1">
          <mxGeometry x="344.5" y="388" width="85.5" height="39" as="geometry" />
        </mxCell>
        <mxCell id="056Ncb_lGaRzY0hPBTxO-20" value="进件" style="edgeStyle=orthogonalEdgeStyle;rounded=0;orthogonalLoop=1;jettySize=auto;html=1;shape=flexArrow;" edge="1" parent="1" source="056Ncb_lGaRzY0hPBTxO-6" target="056Ncb_lGaRzY0hPBTxO-1">
          <mxGeometry relative="1" as="geometry" />
        </mxCell>
        <mxCell id="056Ncb_lGaRzY0hPBTxO-6" value="进件信息采集" style="rounded=1;whiteSpace=wrap;html=1;align=left;verticalAlign=top;fillColor=#C4EAF5;fontColor=#333333;strokeColor=none;shadow=1;glass=0;spacingTop=4;spacingLeft=15;fontStyle=1;fontSize=12;" vertex="1" parent="1">
          <mxGeometry x="133.75" y="163" width="429" height="128" as="geometry" />
        </mxCell>
        <mxCell id="056Ncb_lGaRzY0hPBTxO-7" value="实名认证" style="rounded=0;whiteSpace=wrap;html=1;fillColor=#D5E8D4;fontColor=#333333;strokeColor=none;shadow=1;" vertex="1" parent="1">
          <mxGeometry x="152.75" y="199" width="77" height="32" as="geometry" />
        </mxCell>
        <mxCell id="056Ncb_lGaRzY0hPBTxO-8" value="供应链合同" style="rounded=0;whiteSpace=wrap;html=1;fillColor=#D5E8D4;fontColor=#333333;strokeColor=none;shadow=1;" vertex="1" parent="1">
          <mxGeometry x="440.75" y="199" width="101" height="32" as="geometry" />
        </mxCell>
        <mxCell id="056Ncb_lGaRzY0hPBTxO-9" value="征信材料" style="rounded=0;whiteSpace=wrap;html=1;fillColor=#D5E8D4;fontColor=#333333;strokeColor=none;shadow=1;" vertex="1" parent="1">
          <mxGeometry x="242.75" y="199" width="88" height="32" as="geometry" />
        </mxCell>
        <mxCell id="056Ncb_lGaRzY0hPBTxO-10" value="财务材料" style="rounded=0;whiteSpace=wrap;html=1;fillColor=#D5E8D4;fontColor=#333333;strokeColor=none;shadow=1;" vertex="1" parent="1">
          <mxGeometry x="341.75" y="199" width="88" height="33" as="geometry" />
        </mxCell>
        <mxCell id="056Ncb_lGaRzY0hPBTxO-11" value="资产证明" style="rounded=0;whiteSpace=wrap;html=1;fillColor=#D5E8D4;fontColor=#333333;strokeColor=none;shadow=1;" vertex="1" parent="1">
          <mxGeometry x="154.75" y="243" width="73" height="28" as="geometry" />
        </mxCell>
        <mxCell id="056Ncb_lGaRzY0hPBTxO-12" value="诉讼材料" style="rounded=0;whiteSpace=wrap;html=1;fillColor=#D5E8D4;fontColor=#333333;strokeColor=none;shadow=1;" vertex="1" parent="1">
          <mxGeometry x="244.75" y="243" width="86" height="29" as="geometry" />
        </mxCell>
        <mxCell id="056Ncb_lGaRzY0hPBTxO-13" value="其它材料" style="rounded=0;whiteSpace=wrap;html=1;fillColor=#D5E8D4;fontColor=#333333;strokeColor=none;shadow=1;" vertex="1" parent="1">
          <mxGeometry x="341.75" y="243" width="90" height="29" as="geometry" />
        </mxCell>
        <mxCell id="056Ncb_lGaRzY0hPBTxO-14" value="贷款管理" style="rounded=1;whiteSpace=wrap;html=1;align=left;verticalAlign=top;fillColor=#f5f5f5;fontColor=#333333;strokeColor=none;shadow=1;glass=0;spacingTop=4;spacingLeft=15;fontStyle=1;fontSize=12;" vertex="1" parent="1">
          <mxGeometry x="133.75" y="598" width="429" height="120" as="geometry" />
        </mxCell>
        <mxCell id="056Ncb_lGaRzY0hPBTxO-15" value="贷款审批" style="rounded=0;whiteSpace=wrap;html=1;fillColor=#D5E8D4;fontColor=#333333;strokeColor=none;shadow=1;" vertex="1" parent="1">
          <mxGeometry x="150.75" y="639" width="77" height="53" as="geometry" />
        </mxCell>
        <mxCell id="056Ncb_lGaRzY0hPBTxO-16" value="在线签约" style="rounded=0;whiteSpace=wrap;html=1;fillColor=#D5E8D4;fontColor=#333333;strokeColor=none;shadow=1;" vertex="1" parent="1">
          <mxGeometry x="248.25" y="639" width="77" height="53" as="geometry" />
        </mxCell>
        <mxCell id="056Ncb_lGaRzY0hPBTxO-17" value="还款跟踪" style="rounded=0;whiteSpace=wrap;html=1;fillColor=#D5E8D4;fontColor=#333333;strokeColor=none;shadow=1;" vertex="1" parent="1">
          <mxGeometry x="348.25" y="639" width="77" height="53" as="geometry" />
        </mxCell>
        <mxCell id="056Ncb_lGaRzY0hPBTxO-18" value="催还款" style="rounded=0;whiteSpace=wrap;html=1;fillColor=#D5E8D4;fontColor=#333333;strokeColor=none;shadow=1;" vertex="1" parent="1">
          <mxGeometry x="448.75" y="639" width="77" height="53" as="geometry" />
        </mxCell>
        <mxCell id="056Ncb_lGaRzY0hPBTxO-19" value="资料核验" style="rounded=0;whiteSpace=wrap;html=1;fillColor=#D5E8D4;fontColor=#333333;strokeColor=none;shadow=1;" vertex="1" parent="1">
          <mxGeometry x="153" y="389" width="77" height="38" as="geometry" />
        </mxCell>
        <mxCell id="056Ncb_lGaRzY0hPBTxO-22" value="系统功能" style="rounded=1;whiteSpace=wrap;html=1;align=left;verticalAlign=top;fillColor=#FFE6CC;fontColor=#333333;strokeColor=none;shadow=1;glass=0;spacingTop=4;spacingLeft=15;fontStyle=1;fontSize=12;" vertex="1" parent="1">
          <mxGeometry x="579" y="163" width="162" height="555" as="geometry" />
        </mxCell>
        <mxCell id="056Ncb_lGaRzY0hPBTxO-23" value="人员管理" style="rounded=0;whiteSpace=wrap;html=1;fillColor=#FFB366;fontColor=#333333;strokeColor=none;shadow=1;" vertex="1" parent="1">
          <mxGeometry x="609.5" y="231" width="101" height="32" as="geometry" />
        </mxCell>
        <mxCell id="056Ncb_lGaRzY0hPBTxO-24" value="客服管理" style="rounded=0;whiteSpace=wrap;html=1;fillColor=#FFB366;fontColor=#333333;strokeColor=none;shadow=1;" vertex="1" parent="1">
          <mxGeometry x="609.5" y="303" width="101" height="32" as="geometry" />
        </mxCell>
        <mxCell id="056Ncb_lGaRzY0hPBTxO-25" value="系统通知" style="rounded=0;whiteSpace=wrap;html=1;fillColor=#FFB366;fontColor=#333333;strokeColor=none;shadow=1;" vertex="1" parent="1">
          <mxGeometry x="609.5" y="373" width="101" height="32" as="geometry" />
        </mxCell>
        <mxCell id="056Ncb_lGaRzY0hPBTxO-26" value="电子合同" style="rounded=0;whiteSpace=wrap;html=1;fillColor=#FFB366;fontColor=#333333;strokeColor=none;shadow=1;" vertex="1" parent="1">
          <mxGeometry x="612" y="449" width="101" height="32" as="geometry" />
        </mxCell>
        <mxCell id="056Ncb_lGaRzY0hPBTxO-27" value="" style="rounded=1;whiteSpace=wrap;html=1;align=left;verticalAlign=top;fillColor=#8CD5FF;fontColor=#ffffff;strokeColor=none;shadow=1;glass=0;spacingTop=4;spacingLeft=15;fontStyle=1;fontSize=12;" vertex="1" parent="1">
          <mxGeometry x="909" y="613.5" width="527" height="120" as="geometry" />
        </mxCell>
        <mxCell id="056Ncb_lGaRzY0hPBTxO-28" value="底&lt;div&gt;层&lt;/div&gt;&lt;div&gt;能&lt;/div&gt;&lt;div&gt;力&lt;/div&gt;" style="rounded=0;whiteSpace=wrap;html=1;fillColor=#0050ef;fontColor=#ffffff;strokeColor=none;shadow=1;fontSize=18;labelBackgroundColor=none;" vertex="1" parent="1">
          <mxGeometry x="866" y="612.5" width="70" height="122" as="geometry" />
        </mxCell>
        <mxCell id="056Ncb_lGaRzY0hPBTxO-35" value="" style="rounded=1;whiteSpace=wrap;html=1;align=left;verticalAlign=top;fillColor=#CCE5FF;fontColor=#ffffff;strokeColor=none;shadow=1;glass=0;spacingTop=4;spacingLeft=15;fontStyle=1;fontSize=12;" vertex="1" parent="1">
          <mxGeometry x="910" y="473" width="526" height="134" as="geometry" />
        </mxCell>
        <mxCell id="056Ncb_lGaRzY0hPBTxO-69" value="" style="group" vertex="1" connectable="0" parent="1">
          <mxGeometry x="957" y="637" width="461" height="75" as="geometry" />
        </mxCell>
        <mxCell id="056Ncb_lGaRzY0hPBTxO-29" value="电子合同" style="rounded=0;whiteSpace=wrap;html=1;fillColor=#007FFF;fontColor=#ffffff;strokeColor=none;shadow=1;fontSize=13;labelBackgroundColor=none;" vertex="1" parent="056Ncb_lGaRzY0hPBTxO-69">
          <mxGeometry x="162" width="137" height="32.38636363636364" as="geometry" />
        </mxCell>
        <mxCell id="056Ncb_lGaRzY0hPBTxO-30" value="身份认证" style="rounded=0;whiteSpace=wrap;html=1;fillColor=#007FFF;fontColor=#ffffff;strokeColor=none;shadow=1;fontSize=13;labelBackgroundColor=none;" vertex="1" parent="056Ncb_lGaRzY0hPBTxO-69">
          <mxGeometry width="137" height="32.38636363636364" as="geometry" />
        </mxCell>
        <mxCell id="056Ncb_lGaRzY0hPBTxO-31" value="客服系统" style="rounded=0;whiteSpace=wrap;html=1;fillColor=#007FFF;fontColor=#ffffff;strokeColor=none;shadow=1;fontSize=13;labelBackgroundColor=none;" vertex="1" parent="056Ncb_lGaRzY0hPBTxO-69">
          <mxGeometry x="324" width="137" height="32.38636363636364" as="geometry" />
        </mxCell>
        <mxCell id="056Ncb_lGaRzY0hPBTxO-32" value="工商信息" style="rounded=0;whiteSpace=wrap;html=1;fillColor=#007FFF;fontColor=#ffffff;strokeColor=none;shadow=1;fontSize=13;labelBackgroundColor=none;" vertex="1" parent="056Ncb_lGaRzY0hPBTxO-69">
          <mxGeometry y="42.61363636363637" width="137" height="32.38636363636364" as="geometry" />
        </mxCell>
        <mxCell id="056Ncb_lGaRzY0hPBTxO-33" value="法诉对接" style="rounded=0;whiteSpace=wrap;html=1;fillColor=#007FFF;fontColor=#ffffff;strokeColor=none;shadow=1;fontSize=13;labelBackgroundColor=none;" vertex="1" parent="056Ncb_lGaRzY0hPBTxO-69">
          <mxGeometry x="162" y="42.61363636363637" width="137" height="32.38636363636364" as="geometry" />
        </mxCell>
        <mxCell id="056Ncb_lGaRzY0hPBTxO-34" value="信息评估" style="rounded=0;whiteSpace=wrap;html=1;fillColor=#007FFF;fontColor=#ffffff;strokeColor=none;shadow=1;fontSize=13;labelBackgroundColor=none;" vertex="1" parent="056Ncb_lGaRzY0hPBTxO-69">
          <mxGeometry x="324" y="42.61363636363637" width="137" height="32.38636363636364" as="geometry" />
        </mxCell>
        <mxCell id="056Ncb_lGaRzY0hPBTxO-37" value="资料审核" style="rounded=0;whiteSpace=wrap;html=1;fillColor=#007FFF;fontColor=#ffffff;strokeColor=none;shadow=1;fontSize=13;labelBackgroundColor=none;" vertex="1" parent="1">
          <mxGeometry x="1058.5793103448277" y="505.5" width="75.91724137931035" height="23.5" as="geometry" />
        </mxCell>
        <mxCell id="056Ncb_lGaRzY0hPBTxO-39" value="评估引擎" style="rounded=0;whiteSpace=wrap;html=1;fillColor=#007FFF;fontColor=#ffffff;strokeColor=none;shadow=1;fontSize=13;labelBackgroundColor=none;" vertex="1" parent="1">
          <mxGeometry x="1163.6275862068965" y="505.5" width="75.91724137931035" height="23.5" as="geometry" />
        </mxCell>
        <mxCell id="056Ncb_lGaRzY0hPBTxO-54" value="" style="triangle;whiteSpace=wrap;html=1;fillColor=#027ffe;fontColor=#ffffff;strokeColor=none;shadow=1;" vertex="1" parent="1">
          <mxGeometry x="1142.441379310345" y="505.5" width="14.565517241379311" height="23.5" as="geometry" />
        </mxCell>
        <mxCell id="056Ncb_lGaRzY0hPBTxO-57" value="签约放款" style="rounded=0;whiteSpace=wrap;html=1;fillColor=#007FFF;fontColor=#ffffff;strokeColor=none;shadow=1;fontSize=13;labelBackgroundColor=none;" vertex="1" parent="1">
          <mxGeometry x="1268.6758620689657" y="504.87" width="64" height="23.5" as="geometry" />
        </mxCell>
        <mxCell id="056Ncb_lGaRzY0hPBTxO-58" value="" style="triangle;whiteSpace=wrap;html=1;fillColor=#027ffe;fontColor=#ffffff;strokeColor=none;shadow=1;" vertex="1" parent="1">
          <mxGeometry x="1247.4896551724137" y="505.5" width="14.565517241379311" height="23.5" as="geometry" />
        </mxCell>
        <mxCell id="056Ncb_lGaRzY0hPBTxO-38" value="进件资料采集" style="rounded=0;whiteSpace=wrap;html=1;fillColor=#007FFF;fontColor=#ffffff;strokeColor=#027ffe;shadow=1;fontSize=13;labelBackgroundColor=none;align=center;gradientColor=none;" vertex="1" parent="1">
          <mxGeometry x="950" y="506" width="80.33103448275862" height="23.5" as="geometry" />
        </mxCell>
        <mxCell id="056Ncb_lGaRzY0hPBTxO-59" value="" style="triangle;whiteSpace=wrap;html=1;fillColor=#027ffe;fontColor=#ffffff;strokeColor=none;shadow=1;" vertex="1" parent="1">
          <mxGeometry x="1038.2758620689656" y="504.87" width="15.49241379310345" height="24.75" as="geometry" />
        </mxCell>
        <mxCell id="056Ncb_lGaRzY0hPBTxO-61" value="企业认证" style="rounded=0;whiteSpace=wrap;html=1;fillColor=#CCE5FF;fontColor=#000000;strokeColor=#027ffe;shadow=1;fontSize=13;labelBackgroundColor=none;align=center;gradientColor=none;" vertex="1" parent="1">
          <mxGeometry x="950" y="542" width="80.33103448275862" height="23.5" as="geometry" />
        </mxCell>
        <mxCell id="056Ncb_lGaRzY0hPBTxO-62" value="资料上传" style="rounded=0;whiteSpace=wrap;html=1;fillColor=#CCE5FF;fontColor=#000000;strokeColor=#027ffe;shadow=1;fontSize=13;labelBackgroundColor=none;align=center;gradientColor=none;" vertex="1" parent="1">
          <mxGeometry x="950" y="574.5" width="80.33103448275862" height="23.5" as="geometry" />
        </mxCell>
        <mxCell id="056Ncb_lGaRzY0hPBTxO-63" value="当面核验" style="rounded=0;whiteSpace=wrap;html=1;fillColor=#CCE5FF;fontColor=#000000;strokeColor=#027ffe;shadow=1;fontSize=13;labelBackgroundColor=none;align=center;gradientColor=none;" vertex="1" parent="1">
          <mxGeometry x="1058.5793103448277" y="542" width="80.33103448275862" height="23.5" as="geometry" />
        </mxCell>
        <mxCell id="056Ncb_lGaRzY0hPBTxO-64" value="资料对比" style="rounded=0;whiteSpace=wrap;html=1;fillColor=#CCE5FF;fontColor=#000000;strokeColor=#027ffe;shadow=1;fontSize=13;labelBackgroundColor=none;align=center;gradientColor=none;" vertex="1" parent="1">
          <mxGeometry x="1058.5793103448277" y="574.5" width="80.33103448275862" height="23.5" as="geometry" />
        </mxCell>
        <mxCell id="056Ncb_lGaRzY0hPBTxO-65" value="评估模型" style="rounded=0;whiteSpace=wrap;html=1;fillColor=#CCE5FF;fontColor=#000000;strokeColor=#027ffe;shadow=1;fontSize=13;labelBackgroundColor=none;align=center;gradientColor=none;" vertex="1" parent="1">
          <mxGeometry x="1163.6275862068965" y="542" width="80.33103448275862" height="23.5" as="geometry" />
        </mxCell>
        <mxCell id="056Ncb_lGaRzY0hPBTxO-66" value="评估报告" style="rounded=0;whiteSpace=wrap;html=1;fillColor=#CCE5FF;fontColor=#000000;strokeColor=#027ffe;shadow=1;fontSize=13;labelBackgroundColor=none;align=center;gradientColor=none;" vertex="1" parent="1">
          <mxGeometry x="1163.6275862068965" y="573" width="80.33103448275862" height="23.5" as="geometry" />
        </mxCell>
        <mxCell id="056Ncb_lGaRzY0hPBTxO-67" value="贷款审批" style="rounded=0;whiteSpace=wrap;html=1;fillColor=#CCE5FF;fontColor=#000000;strokeColor=#027ffe;shadow=1;fontSize=13;labelBackgroundColor=none;align=center;gradientColor=none;" vertex="1" parent="1">
          <mxGeometry x="1268.6758620689657" y="542" width="65.32413793103449" height="23.5" as="geometry" />
        </mxCell>
        <mxCell id="056Ncb_lGaRzY0hPBTxO-68" value="在线签约" style="rounded=0;whiteSpace=wrap;html=1;fillColor=#CCE5FF;fontColor=#000000;strokeColor=#027ffe;shadow=1;fontSize=13;labelBackgroundColor=none;align=center;gradientColor=none;" vertex="1" parent="1">
          <mxGeometry x="1268.6758620689657" y="573" width="65.32413793103449" height="23.5" as="geometry" />
        </mxCell>
        <mxCell id="056Ncb_lGaRzY0hPBTxO-73" value="" style="triangle;whiteSpace=wrap;html=1;fillColor=#027ffe;fontColor=#ffffff;strokeColor=none;shadow=1;" vertex="1" parent="1">
          <mxGeometry x="1340.9996551724137" y="505.5" width="14.565517241379311" height="23.5" as="geometry" />
        </mxCell>
        <mxCell id="056Ncb_lGaRzY0hPBTxO-74" value="贷后管理" style="rounded=0;whiteSpace=wrap;html=1;fillColor=#007FFF;fontColor=#ffffff;strokeColor=none;shadow=1;fontSize=13;labelBackgroundColor=none;" vertex="1" parent="1">
          <mxGeometry x="1362.1858620689657" y="504.87" width="64" height="23.5" as="geometry" />
        </mxCell>
        <mxCell id="056Ncb_lGaRzY0hPBTxO-75" value="还款管理" style="rounded=0;whiteSpace=wrap;html=1;fillColor=#CCE5FF;fontColor=#000000;strokeColor=#027ffe;shadow=1;fontSize=13;labelBackgroundColor=none;align=center;gradientColor=none;" vertex="1" parent="1">
          <mxGeometry x="1362.1858620689657" y="542" width="65.32413793103449" height="23.5" as="geometry" />
        </mxCell>
        <mxCell id="056Ncb_lGaRzY0hPBTxO-76" value="信用管理" style="rounded=0;whiteSpace=wrap;html=1;fillColor=#CCE5FF;fontColor=#000000;strokeColor=#027ffe;shadow=1;fontSize=13;labelBackgroundColor=none;align=center;gradientColor=none;" vertex="1" parent="1">
          <mxGeometry x="1362.1858620689657" y="573" width="65.32413793103449" height="23.5" as="geometry" />
        </mxCell>
        <mxCell id="056Ncb_lGaRzY0hPBTxO-88" value="" style="group" vertex="1" connectable="0" parent="1">
          <mxGeometry x="910" y="395" width="526" height="68" as="geometry" />
        </mxCell>
        <mxCell id="056Ncb_lGaRzY0hPBTxO-77" value="" style="rounded=1;whiteSpace=wrap;html=1;align=center;verticalAlign=top;fillColor=#D5E8D4;fontColor=#ffffff;strokeColor=none;shadow=1;glass=0;spacingTop=4;spacingLeft=15;fontStyle=1;fontSize=12;" vertex="1" parent="056Ncb_lGaRzY0hPBTxO-88">
          <mxGeometry y="2" width="526" height="66" as="geometry" />
        </mxCell>
        <mxCell id="056Ncb_lGaRzY0hPBTxO-78" value="上传资料" style="rounded=0;whiteSpace=wrap;html=1;fillColor=#008a00;fontColor=#ffffff;strokeColor=none;shadow=1;fontSize=13;labelBackgroundColor=none;align=center;" vertex="1" parent="056Ncb_lGaRzY0hPBTxO-88">
          <mxGeometry x="37.40999999999997" y="30.25999999999999" width="80.33103448275862" height="23.5" as="geometry" />
        </mxCell>
        <mxCell id="056Ncb_lGaRzY0hPBTxO-79" value="" style="triangle;whiteSpace=wrap;html=1;fillColor=#008a00;fontColor=#ffffff;strokeColor=none;shadow=1;" vertex="1" parent="056Ncb_lGaRzY0hPBTxO-88">
          <mxGeometry x="125.68586206896566" y="29.129999999999995" width="15.49241379310345" height="24.75" as="geometry" />
        </mxCell>
        <mxCell id="056Ncb_lGaRzY0hPBTxO-80" value="等待审批" style="rounded=0;whiteSpace=wrap;html=1;fillColor=#008a00;fontColor=#ffffff;strokeColor=none;shadow=1;fontSize=13;labelBackgroundColor=none;" vertex="1" parent="056Ncb_lGaRzY0hPBTxO-88">
          <mxGeometry x="145.9893103448278" y="29.75999999999999" width="75.91724137931035" height="23.5" as="geometry" />
        </mxCell>
        <mxCell id="056Ncb_lGaRzY0hPBTxO-81" value="" style="triangle;whiteSpace=wrap;html=1;fillColor=#008a00;fontColor=#ffffff;strokeColor=none;shadow=1;" vertex="1" parent="056Ncb_lGaRzY0hPBTxO-88">
          <mxGeometry x="229.851379310345" y="29.75999999999999" width="14.565517241379311" height="23.5" as="geometry" />
        </mxCell>
        <mxCell id="056Ncb_lGaRzY0hPBTxO-82" value="评估引擎" style="rounded=0;whiteSpace=wrap;html=1;fillColor=#008a00;fontColor=#ffffff;strokeColor=none;shadow=1;fontSize=13;labelBackgroundColor=none;" vertex="1" parent="056Ncb_lGaRzY0hPBTxO-88">
          <mxGeometry x="251.03758620689655" y="29.75999999999999" width="75.91724137931035" height="23.5" as="geometry" />
        </mxCell>
        <mxCell id="056Ncb_lGaRzY0hPBTxO-83" value="" style="triangle;whiteSpace=wrap;html=1;fillColor=#008a00;fontColor=#ffffff;strokeColor=none;shadow=1;" vertex="1" parent="056Ncb_lGaRzY0hPBTxO-88">
          <mxGeometry x="334.89965517241376" y="29.75999999999999" width="14.565517241379311" height="23.5" as="geometry" />
        </mxCell>
        <mxCell id="056Ncb_lGaRzY0hPBTxO-84" value="签约放款" style="rounded=0;whiteSpace=wrap;html=1;fillColor=#008a00;fontColor=#ffffff;strokeColor=none;shadow=1;fontSize=13;labelBackgroundColor=none;" vertex="1" parent="056Ncb_lGaRzY0hPBTxO-88">
          <mxGeometry x="356.08586206896575" y="29.129999999999995" width="64" height="23.5" as="geometry" />
        </mxCell>
        <mxCell id="056Ncb_lGaRzY0hPBTxO-85" value="" style="triangle;whiteSpace=wrap;html=1;fillColor=#008a00;fontColor=#ffffff;strokeColor=none;shadow=1;" vertex="1" parent="056Ncb_lGaRzY0hPBTxO-88">
          <mxGeometry x="428.40965517241375" y="29.75999999999999" width="14.565517241379311" height="23.5" as="geometry" />
        </mxCell>
        <mxCell id="056Ncb_lGaRzY0hPBTxO-86" value="贷后管理" style="rounded=0;whiteSpace=wrap;html=1;fillColor=#008a00;fontColor=#ffffff;strokeColor=none;shadow=1;fontSize=13;labelBackgroundColor=none;" vertex="1" parent="056Ncb_lGaRzY0hPBTxO-88">
          <mxGeometry x="449.59586206896574" y="29.129999999999995" width="64" height="23.5" as="geometry" />
        </mxCell>
        <mxCell id="056Ncb_lGaRzY0hPBTxO-87" value="客户端" style="text;html=1;align=center;verticalAlign=middle;whiteSpace=wrap;rounded=0;fontColor=#48786F;" vertex="1" parent="056Ncb_lGaRzY0hPBTxO-88">
          <mxGeometry x="227" width="60" height="30" as="geometry" />
        </mxCell>
        <mxCell id="056Ncb_lGaRzY0hPBTxO-36" value="进&lt;div&gt;件&lt;/div&gt;&lt;div&gt;管&lt;/div&gt;&lt;div&gt;理&lt;/div&gt;&lt;div&gt;一&lt;/div&gt;&lt;div&gt;站&lt;/div&gt;&lt;div&gt;式&lt;/div&gt;&lt;div&gt;平&lt;/div&gt;&lt;div&gt;台&lt;/div&gt;" style="rounded=0;whiteSpace=wrap;html=1;fillColor=#6666FF;fontColor=#ffffff;strokeColor=none;shadow=1;fontSize=18;labelBackgroundColor=none;" vertex="1" parent="1">
          <mxGeometry x="866" y="391" width="70" height="217" as="geometry" />
        </mxCell>
        <mxCell id="056Ncb_lGaRzY0hPBTxO-89" value="管理端" style="text;html=1;align=center;verticalAlign=middle;whiteSpace=wrap;rounded=0;fontColor=#027ffe;" vertex="1" parent="1">
          <mxGeometry x="1138.91" y="473" width="60" height="30" as="geometry" />
        </mxCell>
      </root>
    </mxGraphModel>
  </diagram>
</mxfile>
